<svg width="32" height="32" viewBox="0 0 32 32" xmlns="http://www.w3.org/2000/svg">
  <!-- Background circle with gradient -->
  <defs>
    <linearGradient id="bgGradient" x1="0%" y1="0%" x2="100%" y2="100%">
      <stop offset="0%" style="stop-color:#2563eb;stop-opacity:1" />
      <stop offset="100%" style="stop-color:#7c3aed;stop-opacity:1" />
    </linearGradient>
    <linearGradient id="textGradient" x1="0%" y1="0%" x2="100%" y2="100%">
      <stop offset="0%" style="stop-color:#ffffff;stop-opacity:1" />
      <stop offset="100%" style="stop-color:#e5e7eb;stop-opacity:1" />
    </linearGradient>
  </defs>
  
  <!-- Main background -->
  <circle cx="16" cy="16" r="15" fill="url(#bgGradient)" stroke="#1e40af" stroke-width="2"/>
  
  <!-- Stylized "OA" monogram -->
  <g transform="translate(16,16)">
    <!-- Letter O -->
    <path d="M-8,-6 C-8,-8 -6,-10 -3,-10 C0,-10 2,-8 2,-6 C2,-4 0,-2 -3,-2 C-6,-2 -8,-4 -8,-6 Z" 
          fill="none" stroke="url(#textGradient)" stroke-width="2.5" stroke-linecap="round"/>
    
    <!-- Letter A with futuristic touch -->
    <path d="M3,-10 L7,-2 M3,-10 L-1,-2 M1,-6 L5,-6" 
          fill="none" stroke="url(#textGradient)" stroke-width="2.5" stroke-linecap="round"/>
    
    <!-- Subtle "2049" reference - small dots forming a digital pattern -->
    <circle cx="-7" cy="6" r="1" fill="url(#textGradient)" opacity="0.7"/>
    <circle cx="-3" cy="8" r="1" fill="url(#textGradient)" opacity="0.7"/>
    <circle cx="1" cy="6" r="1" fill="url(#textGradient)" opacity="0.7"/>
    <circle cx="5" cy="8" r="1" fill="url(#textGradient)" opacity="0.7"/>
  </g>
  
  <!-- Subtle outer glow effect -->
  <circle cx="16" cy="16" r="15" fill="none" stroke="#3b82f6" stroke-width="1" opacity="0.5"/>
</svg>